<svg width="91" height="54" viewBox="0 0 91 54" fill="none" xmlns="http://www.w3.org/2000/svg">
<path d="M27.2312 1.5836C26.6609 1.15751 26.0239 0.801628 25.3277 0.533247C21.2228 -1.04923 16.6177 1.00962 15.0419 5.13181L0.531005 43.091C-1.04481 47.2132 1.00537 51.8377 5.11022 53.4202C9.21508 55.0027 13.8202 52.9438 15.396 48.8216L22.6319 29.8931L30.0231 48.9098C31.6218 53.0231 36.2382 55.0561 40.3342 53.4507C44.4302 51.8452 46.4547 47.2092 44.856 43.096L30.1582 5.28014C29.5521 3.72061 28.5121 2.46012 27.2312 1.5836Z" fill="#F9F9F9"/>
<path d="M59.7006 0.0303078C64.0976 0.0303078 67.662 3.60978 67.662 8.02528V45.8016C67.662 50.2172 64.0976 53.7966 59.7006 53.7966H59.1494C54.7525 53.7966 51.1881 50.2172 51.1881 45.8016V8.02528C51.1881 3.60978 54.7525 0.0303078 59.1494 0.0303078H59.7006Z" fill="#F9F9F9"/>
<path d="M82.7631 37.2531C87.3122 37.2531 91 40.9565 91 45.5249C91 50.0932 87.3122 53.7966 82.7631 53.7966C78.2139 53.7966 74.5261 50.0932 74.5261 45.5249C74.5261 40.9565 78.2139 37.2531 82.7631 37.2531Z" fill="#F9F9F9"/>
</svg>
